<svg   viewBox="0 0 24 24" fill="none" xmlns="http://www.w3.org/2000/svg" width="24" height="24" focusable="false" aria-hidden="true">
<path d="M23.4375 12.9375C23.4375 13.2359 23.319 13.522 23.108 13.733C22.897 13.944 22.6109 14.0625 22.3125 14.0625C22.0141 14.0625 21.728 13.944 21.517 13.733C21.306 13.522 21.1875 13.2359 21.1875 12.9375C21.1848 10.6011 20.2554 8.36121 18.6034 6.70914C16.9513 5.05706 14.7114 4.12773 12.375 4.125C10.2871 4.12723 8.28537 4.95764 6.809 6.434C5.33264 7.91037 4.50223 9.91211 4.5 12C4.50223 13.8393 5.23386 15.6025 6.53441 16.9031C7.83496 18.2036 9.59825 18.9353 11.4375 18.9375C13.0283 18.9358 14.5534 18.3031 15.6782 17.1782C16.8031 16.0534 17.4358 14.5283 17.4375 12.9375C17.436 11.5953 16.9022 10.3085 15.9531 9.35942C15.004 8.41034 13.7172 7.87649 12.375 7.875C11.2814 7.87624 10.2329 8.31124 9.45955 9.08455C8.68624 9.85787 8.25124 10.9064 8.25 12C8.25 12.8454 8.58582 13.6561 9.1836 14.2539C9.78137 14.8517 10.5921 15.1875 11.4375 15.1875C12.0342 15.1875 12.6065 14.9504 13.0285 14.5285C13.4504 14.1065 13.6875 13.5342 13.6875 12.9375C13.6875 12.5894 13.5492 12.2556 13.3031 12.0094C13.0569 11.7633 12.7231 11.625 12.375 11.625C12.2758 11.6252 12.1808 11.6646 12.1106 11.7347C12.341 11.8446 12.5272 12.0297 12.6385 12.2594C12.7498 12.4892 12.7797 12.75 12.7232 12.9989C12.6667 13.2479 12.5272 13.4702 12.3277 13.6295C12.1281 13.7887 11.8803 13.8752 11.625 13.875C11.1277 13.875 10.6508 13.6775 10.2992 13.3258C9.94754 12.9742 9.75 12.4973 9.75 12C9.75 11.3038 10.0266 10.6361 10.5188 10.1438C11.0111 9.65156 11.6788 9.375 12.375 9.375C12.8428 9.375 13.3061 9.46715 13.7383 9.64618C14.1705 9.82521 14.5633 10.0876 14.8941 10.4184C15.2249 10.7492 15.4873 11.142 15.6663 11.5742C15.8454 12.0064 15.9375 12.4697 15.9375 12.9375C15.9363 14.1306 15.4618 15.2745 14.6181 16.1181C13.7745 16.9618 12.6306 17.4363 11.4375 17.4375C9.99592 17.4358 8.61388 16.8623 7.59453 15.843C6.57517 14.8236 6.00174 13.4416 6 12C6.00174 10.3098 6.67394 8.68928 7.86911 7.49411C9.06428 6.29894 10.6848 5.62674 12.375 5.625C14.3137 5.62723 16.1724 6.39837 17.5433 7.76925C18.9141 9.14012 19.6853 10.9988 19.6875 12.9375C19.685 15.1248 18.815 17.2218 17.2684 18.7684C15.7218 20.315 13.6248 21.185 11.4375 21.1875C9.00166 21.1848 6.66637 20.2159 4.94397 18.4935C3.22157 16.7711 2.25273 14.4358 2.25 12C2.25298 9.3156 3.32067 6.74199 5.21883 4.84383C7.11699 2.94567 9.6906 1.87798 12.375 1.875C15.308 1.87823 18.1199 3.04477 20.1938 5.11869C22.2677 7.19262 23.4343 10.0045 23.4375 12.9375Z" fill="#070707" fill-opacity="0.93"/>
</svg>
