<svg   viewBox="0 0 24 24" fill="none" xmlns="http://www.w3.org/2000/svg" width="24" height="24" focusable="false" aria-hidden="true">
<path d="M12 1.875C9.99747 1.875 8.0399 2.46882 6.37486 3.58137C4.70981 4.69392 3.41206 6.27523 2.64572 8.12533C1.87939 9.97543 1.67888 12.0112 2.06955 13.9753C2.46023 15.9393 3.42454 17.7435 4.84055 19.1595C6.25656 20.5755 8.06066 21.5398 10.0247 21.9305C11.9888 22.3211 14.0246 22.1206 15.8747 21.3543C17.7248 20.5879 19.3061 19.2902 20.4186 17.6251C21.5312 15.9601 22.125 14.0025 22.125 12C22.122 9.3156 21.0543 6.74199 19.1562 4.84383C17.258 2.94567 14.6844 1.87798 12 1.875ZM12 19.875C10.4425 19.875 8.91993 19.4131 7.62489 18.5478C6.32985 17.6825 5.32049 16.4526 4.72445 15.0136C4.12841 13.5747 3.97246 11.9913 4.27632 10.4637C4.58018 8.93606 5.3302 7.53287 6.43154 6.43153C7.53288 5.3302 8.93607 4.58017 10.4637 4.27632C11.9913 3.97246 13.5747 4.12841 15.0136 4.72445C16.4526 5.32049 17.6825 6.32985 18.5478 7.62488C19.4131 8.91992 19.875 10.4425 19.875 12C19.8728 14.0879 19.0424 16.0896 17.566 17.566C16.0896 19.0424 14.0879 19.8728 12 19.875ZM7.125 10.125C7.125 9.82833 7.21298 9.53832 7.3778 9.29165C7.54262 9.04497 7.77689 8.85271 8.05098 8.73918C8.32507 8.62565 8.62667 8.59594 8.91764 8.65382C9.20861 8.7117 9.47589 8.85456 9.68566 9.06434C9.89544 9.27412 10.0383 9.54139 10.0962 9.83236C10.1541 10.1233 10.1244 10.4249 10.0108 10.699C9.89729 10.9731 9.70503 11.2074 9.45836 11.3722C9.21169 11.537 8.92168 11.625 8.625 11.625C8.22718 11.625 7.84565 11.467 7.56434 11.1857C7.28304 10.9044 7.125 10.5228 7.125 10.125ZM17.625 10.125C17.625 10.4234 17.5065 10.7095 17.2955 10.9205C17.0845 11.1315 16.7984 11.25 16.5 11.25H14.25C13.9516 11.25 13.6655 11.1315 13.4545 10.9205C13.2435 10.7095 13.125 10.4234 13.125 10.125C13.125 9.82663 13.2435 9.54048 13.4545 9.3295C13.6655 9.11853 13.9516 9 14.25 9H16.5C16.7984 9 17.0845 9.11853 17.2955 9.3295C17.5065 9.54048 17.625 9.82663 17.625 10.125ZM16.7241 14.8125C15.6928 16.5994 13.9688 17.625 12 17.625C10.0313 17.625 8.31 16.6003 7.27594 14.8125C7.13319 14.5546 7.0974 14.2509 7.17627 13.9668C7.25514 13.6827 7.44237 13.441 7.69767 13.2935C7.95298 13.1461 8.25595 13.1048 8.54141 13.1785C8.82687 13.2521 9.072 13.4349 9.22407 13.6875C9.58875 14.3184 10.4344 15.375 12 15.375C13.5656 15.375 14.4113 14.3175 14.7759 13.6875C14.8483 13.5567 14.946 13.4417 15.0633 13.3491C15.1807 13.2565 15.3153 13.1882 15.4593 13.1482C15.6033 13.1083 15.7539 13.0974 15.9021 13.1162C16.0504 13.1351 16.1934 13.1833 16.3229 13.258C16.4523 13.3328 16.5655 13.4325 16.656 13.5515C16.7464 13.6705 16.8122 13.8064 16.8496 13.9511C16.8869 14.0958 16.8951 14.2465 16.8735 14.3944C16.852 14.5423 16.8012 14.6845 16.7241 14.8125Z" fill="#070707" fill-opacity="0.93"/>
</svg>
