<svg   viewBox="0 0 24 24" fill="none" xmlns="http://www.w3.org/2000/svg" width="24" height="24" focusable="false" aria-hidden="true">
<path d="M19.5 2.625H4.5C4.00272 2.625 3.52581 2.82254 3.17417 3.17417C2.82254 3.52581 2.625 4.00272 2.625 4.5V19.5C2.625 19.9973 2.82254 20.4742 3.17417 20.8258C3.52581 21.1775 4.00272 21.375 4.5 21.375H19.5C19.9973 21.375 20.4742 21.1775 20.8258 20.8258C21.1775 20.4742 21.375 19.9973 21.375 19.5V4.5C21.375 4.00272 21.1775 3.52581 20.8258 3.17417C20.4742 2.82254 19.9973 2.625 19.5 2.625ZM19.125 4.875V10.8488L17.4506 9.17438C17.099 8.82287 16.6222 8.6254 16.125 8.6254C15.6278 8.6254 15.151 8.82287 14.7994 9.17438L4.875 19.0988V4.875H19.125ZM8.03063 19.125L16.125 11.0306L19.125 14.0306V19.125H8.03063ZM7.125 9C7.125 8.62916 7.23497 8.26665 7.44099 7.95831C7.64702 7.64996 7.93986 7.40964 8.28247 7.26773C8.62508 7.12581 9.00208 7.08868 9.36579 7.16103C9.72951 7.23337 10.0636 7.41195 10.3258 7.67417C10.588 7.9364 10.7666 8.27049 10.839 8.63421C10.9113 8.99792 10.8742 9.37492 10.7323 9.71753C10.5904 10.0601 10.35 10.353 10.0417 10.559C9.73335 10.765 9.37084 10.875 9 10.875C8.50272 10.875 8.02581 10.6775 7.67417 10.3258C7.32254 9.97419 7.125 9.49728 7.125 9Z" fill="#070707" fill-opacity="0.93"/>
</svg>
