<svg   viewBox="0 0 24 24" fill="none" xmlns="http://www.w3.org/2000/svg" width="24" height="24" focusable="false" aria-hidden="true">
<path d="M18.8944 5.10574C17.0659 3.27724 14.5859 2.25 12 2.25C9.4141 2.25 6.93412 3.27724 5.10562 5.10574C3.27712 6.93425 2.24988 9.41423 2.24988 12.0001C2.24988 14.586 3.27712 17.066 5.10562 18.8945C6.93412 20.723 9.4141 21.7502 12 21.7502C14.5859 21.7502 17.0659 20.723 18.8944 18.8945C20.7229 17.066 21.7501 14.586 21.7501 12.0001C21.7501 9.41423 20.7229 6.93425 18.8944 5.10574ZM17.8341 17.8342C16.6802 18.9878 15.2102 19.7735 13.6099 20.0917C12.0096 20.4099 10.3509 20.2465 8.84344 19.622C7.33602 18.9975 6.04762 17.9401 5.14115 16.5834C4.23468 15.2268 3.75086 13.6318 3.75086 12.0001C3.75086 10.3685 4.23468 8.77347 5.14115 7.41679C6.04762 6.06011 7.33602 5.00269 8.84344 4.37823C10.3509 3.75377 12.0096 3.59032 13.6099 3.90855C15.2102 4.22678 16.6802 5.01239 17.8341 6.16606C19.379 7.7146 20.2466 9.81271 20.2466 12.0001C20.2466 14.1875 19.379 16.2856 17.8341 17.8342ZM15.5306 15.2195C15.6714 15.3602 15.7504 15.5511 15.7504 15.7501C15.7504 15.9491 15.6714 16.14 15.5306 16.2807C15.3899 16.4215 15.199 16.5005 15 16.5005C14.801 16.5005 14.6101 16.4215 14.4694 16.2807L12 13.8104L9.53062 16.2807C9.46094 16.3504 9.37821 16.4057 9.28717 16.4434C9.19612 16.4811 9.09854 16.5005 9 16.5005C8.90145 16.5005 8.80387 16.4811 8.71282 16.4434C8.62178 16.4057 8.53905 16.3504 8.46937 16.2807C8.39969 16.2111 8.34441 16.1283 8.3067 16.0373C8.26899 15.9462 8.24958 15.8487 8.24958 15.7501C8.24958 15.6516 8.26899 15.554 8.3067 15.4629C8.34441 15.3719 8.39969 15.2892 8.46937 15.2195L11.4694 12.2195C11.539 12.1498 11.6217 12.0944 11.7128 12.0567C11.8038 12.019 11.9014 11.9995 12 11.9995C12.0986 11.9995 12.1962 12.019 12.2872 12.0567C12.3782 12.0944 12.461 12.1498 12.5306 12.2195L15.5306 15.2195ZM15.5306 9.96949C15.6003 10.0392 15.6556 10.1219 15.6933 10.2129C15.731 10.304 15.7504 10.4016 15.7504 10.5001C15.7504 10.5987 15.731 10.6962 15.6933 10.7873C15.6556 10.8783 15.6003 10.9611 15.5306 11.0307C15.4609 11.1004 15.3782 11.1557 15.2872 11.1934C15.1961 11.2311 15.0985 11.2505 15 11.2505C14.9014 11.2505 14.8039 11.2311 14.7128 11.1934C14.6218 11.1557 14.5391 11.1004 14.4694 11.0307L12 8.56043L9.53062 11.0307C9.38989 11.1715 9.19902 11.2505 9 11.2505C8.80097 11.2505 8.6101 11.1715 8.46937 11.0307C8.32864 10.89 8.24958 10.6991 8.24958 10.5001C8.24958 10.3011 8.32864 10.1102 8.46937 9.96949L11.4694 6.96949C11.539 6.89976 11.6217 6.84444 11.7128 6.8067C11.8038 6.76896 11.9014 6.74953 12 6.74953C12.0986 6.74953 12.1962 6.76896 12.2872 6.8067C12.3782 6.84444 12.461 6.89976 12.5306 6.96949L15.5306 9.96949Z" fill="#070707" fill-opacity="0.93"/>
</svg>
