<svg   viewBox="0 0 24 24" fill="none" xmlns="http://www.w3.org/2000/svg" width="24" height="24" focusable="false" aria-hidden="true">
<path d="M20.0306 7.71938L14.7806 2.46938C14.7109 2.39975 14.6282 2.34454 14.5371 2.3069C14.4461 2.26926 14.3485 2.24992 14.25 2.25H5.25C4.85218 2.25 4.47064 2.40804 4.18934 2.68934C3.90804 2.97064 3.75 3.35218 3.75 3.75V20.25C3.75 20.6478 3.90804 21.0294 4.18934 21.3107C4.47064 21.592 4.85218 21.75 5.25 21.75H18.75C19.1478 21.75 19.5294 21.592 19.8107 21.3107C20.092 21.0294 20.25 20.6478 20.25 20.25V8.25C20.2501 8.15148 20.2307 8.05391 20.1931 7.96286C20.1555 7.87182 20.1003 7.78908 20.0306 7.71938ZM15 4.81031L17.6897 7.5H15V4.81031ZM18.75 20.25H10.5V18.75H11.25C11.4489 18.75 11.6397 18.671 11.7803 18.5303C11.921 18.3897 12 18.1989 12 18C12 17.8011 11.921 17.6103 11.7803 17.4697C11.6397 17.329 11.4489 17.25 11.25 17.25H10.5V15.75H11.25C11.4489 15.75 11.6397 15.671 11.7803 15.5303C11.921 15.3897 12 15.1989 12 15C12 14.8011 11.921 14.6103 11.7803 14.4697C11.6397 14.329 11.4489 14.25 11.25 14.25H10.5V12.75H11.25C11.4489 12.75 11.6397 12.671 11.7803 12.5303C11.921 12.3897 12 12.1989 12 12C12 11.8011 11.921 11.6103 11.7803 11.4697C11.6397 11.329 11.4489 11.25 11.25 11.25H10.5V10.5C10.5 10.3011 10.421 10.1103 10.2803 9.96967C10.1397 9.82902 9.94891 9.75 9.75 9.75C9.55109 9.75 9.36032 9.82902 9.21967 9.96967C9.07902 10.1103 9 10.3011 9 10.5V11.25H8.25C8.05109 11.25 7.86032 11.329 7.71967 11.4697C7.57902 11.6103 7.5 11.8011 7.5 12C7.5 12.1989 7.57902 12.3897 7.71967 12.5303C7.86032 12.671 8.05109 12.75 8.25 12.75H9V14.25H8.25C8.05109 14.25 7.86032 14.329 7.71967 14.4697C7.57902 14.6103 7.5 14.8011 7.5 15C7.5 15.1989 7.57902 15.3897 7.71967 15.5303C7.86032 15.671 8.05109 15.75 8.25 15.75H9V17.25H8.25C8.05109 17.25 7.86032 17.329 7.71967 17.4697C7.57902 17.6103 7.5 17.8011 7.5 18C7.5 18.1989 7.57902 18.3897 7.71967 18.5303C7.86032 18.671 8.05109 18.75 8.25 18.75H9V20.25H5.25V3.75H13.5V8.25C13.5 8.44891 13.579 8.63968 13.7197 8.78033C13.8603 8.92098 14.0511 9 14.25 9H18.75V20.25Z" fill="#070707" fill-opacity="0.93"/>
</svg>
