<svg   viewBox="0 0 24 24" fill="none" xmlns="http://www.w3.org/2000/svg" width="24" height="24" focusable="false" aria-hidden="true">
<path d="M21 4.5H3C2.60218 4.5 2.22064 4.65804 1.93934 4.93934C1.65804 5.22064 1.5 5.60218 1.5 6V18C1.5 18.3978 1.65804 18.7794 1.93934 19.0607C2.22064 19.342 2.60218 19.5 3 19.5H21C21.3978 19.5 21.7794 19.342 22.0607 19.0607C22.342 18.7794 22.5 18.3978 22.5 18V6C22.5 5.60218 22.342 5.22064 22.0607 4.93934C21.7794 4.65804 21.3978 4.5 21 4.5ZM21 18H3V6H21V18ZM11.1488 14.2228C11.2483 14.395 11.2754 14.5997 11.2241 14.7918C11.1727 14.984 11.0472 15.1479 10.875 15.2475C10.3049 15.5767 9.65826 15.75 8.99998 15.75C8.3417 15.75 7.69501 15.5768 7.12492 15.2476C6.55482 14.9185 6.08141 14.4451 5.75226 13.875C5.42312 13.305 5.24984 12.6583 5.24984 12C5.24984 11.3417 5.42312 10.695 5.75226 10.125C6.08141 9.55488 6.55482 9.08148 7.12492 8.75236C7.69501 8.42323 8.3417 8.24997 8.99998 8.25C9.65826 8.25003 10.3049 8.42333 10.875 8.7525C10.963 8.80029 11.0406 8.86523 11.1031 8.94348C11.1656 9.02173 11.2118 9.11171 11.239 9.20811C11.2661 9.3045 11.2737 9.40536 11.2613 9.50474C11.2489 9.60412 11.2166 9.7 11.1665 9.78673C11.1165 9.87345 11.0495 9.94927 10.9696 10.0097C10.8898 10.0701 10.7986 10.1139 10.7015 10.1386C10.6044 10.1632 10.5034 10.1681 10.4044 10.1531C10.3054 10.138 10.2104 10.1033 10.125 10.0509C9.78294 9.85366 9.39499 9.74987 9.00012 9.75C8.60525 9.75013 8.21736 9.85418 7.87544 10.0517C7.53351 10.2492 7.24959 10.5332 7.05219 10.8752C6.85479 11.2172 6.75088 11.6051 6.75088 12C6.75088 12.3949 6.85479 12.7828 7.05219 13.1248C7.24959 13.4668 7.53351 13.7508 7.87544 13.9483C8.21736 14.1458 8.60525 14.2499 9.00012 14.25C9.39499 14.2501 9.78294 14.1463 10.125 13.9491C10.2971 13.8498 10.5016 13.8229 10.6935 13.8742C10.8854 13.9255 11.0492 14.0509 11.1488 14.2228ZM18.6488 14.2228C18.7483 14.395 18.7754 14.5997 18.7241 14.7918C18.6727 14.984 18.5472 15.1479 18.375 15.2475C17.8049 15.5767 17.1583 15.75 16.5 15.75C15.8417 15.75 15.195 15.5768 14.6249 15.2476C14.0548 14.9185 13.5814 14.4451 13.2523 13.875C12.9231 13.305 12.7498 12.6583 12.7498 12C12.7498 11.3417 12.9231 10.695 13.2523 10.125C13.5814 9.55488 14.0548 9.08148 14.6249 8.75236C15.195 8.42323 15.8417 8.24997 16.5 8.25C17.1583 8.25003 17.8049 8.42333 18.375 8.7525C18.463 8.80029 18.5406 8.86523 18.6031 8.94348C18.6656 9.02173 18.7118 9.11171 18.739 9.20811C18.7661 9.3045 18.7737 9.40536 18.7613 9.50474C18.7489 9.60412 18.7166 9.7 18.6665 9.78673C18.6165 9.87345 18.5495 9.94927 18.4696 10.0097C18.3898 10.0701 18.2986 10.1139 18.2015 10.1386C18.1044 10.1632 18.0034 10.1681 17.9044 10.1531C17.8054 10.138 17.7104 10.1033 17.625 10.0509C17.2829 9.85366 16.895 9.74987 16.5001 9.75C16.1052 9.75013 15.7174 9.85418 15.3754 10.0517C15.0335 10.2492 14.7496 10.5332 14.5522 10.8752C14.3548 11.2172 14.2509 11.6051 14.2509 12C14.2509 12.3949 14.3548 12.7828 14.5522 13.1248C14.7496 13.4668 15.0335 13.7508 15.3754 13.9483C15.7174 14.1458 16.1052 14.2499 16.5001 14.25C16.895 14.2501 17.2829 14.1463 17.625 13.9491C17.7971 13.8498 18.0016 13.8229 18.1935 13.8742C18.3854 13.9255 18.5492 14.0509 18.6488 14.2228Z" fill="#070707" fill-opacity="0.93"/>
</svg>
